# xmcd
#
# Track frame offsets:
#	225
#	14258
#	25387
#	38808
#	49923
#	60742
#	75022
#	87900
#	101780
#	113760
#	125734
#	139602
#	151598
#	163184
#	176719
#	188724
#
# Disc length: 2693 seconds
#
# Revision: 4
# Processed by: cddbd v1.5.2PL0 Copyright (c) Steve Scherf et al.
# Submitted via: audiograbber 1.83.01
#
DISCID=c90a8210
DTITLE=Various Artist - The Best of Country - High Noon
DYEAR=2001
DGENRE=Country
TTITLE0=Johnny Cash - Orange Blossom Special
TTITLE1=Roger Miller - King of the road
TTITLE2=Dean Martin - Crying time
TTITLE3=Billie Jo Spears - If you want me
TTITLE4=Tammy Wynette - Singing my song
TTITLE5=Gene Pitney - Somewhere in the country
TTITLE6=Lynn Anderson - Rose garden
TTITLE7=Roy Drusky - Guantanamera
TTITLE8=Frankie Laine - High noon
TTITLE9=SkeEter Davis - End of the world
TTITLE10=Brother Four - Greenfields
TTITLE11=Guy Mitchell - Heartaches by the number
TTITLE12=Donna Fargo - The happiest girl in the USA
TTITLE13=Jimmy Dean - Big Bad John
TTITLE14=Jack Green - There goes my everything
TTITLE15=David Houston - Almost Persuaded
EXTD=
EXTT0=
EXTT1=
EXTT2=
EXTT3=
EXTT4=
EXTT5=
EXTT6=
EXTT7=
EXTT8=
EXTT9=
EXTT10=
EXTT11=
EXTT12=
EXTT13=
EXTT14=
EXTT15=
PLAYORDER=
